<svg width="296" height="65" viewBox="0 0 296 65" fill="none" xmlns="http://www.w3.org/2000/svg">
<path d="M98.2124 57V31.5455H108.255C110.186 31.5455 111.83 31.9142 113.189 32.6516C114.548 33.3808 115.584 34.3958 116.297 35.6967C117.017 36.9893 117.378 38.4808 117.378 40.1712C117.378 41.8615 117.013 43.353 116.284 44.6456C115.555 45.9382 114.498 46.945 113.115 47.6658C111.739 48.3867 110.074 48.7472 108.118 48.7472H101.717V44.4343H107.248C108.284 44.4343 109.137 44.2562 109.809 43.8999C110.488 43.5353 110.993 43.034 111.325 42.396C111.665 41.7496 111.835 41.008 111.835 40.1712C111.835 39.326 111.665 38.5885 111.325 37.9588C110.993 37.3208 110.488 36.8278 109.809 36.4798C109.129 36.1235 108.267 35.9453 107.223 35.9453H103.594V57H98.2124ZM120.774 57V37.9091H125.907V41.2401H126.106C126.454 40.0552 127.038 39.1603 127.859 38.5554C128.679 37.9422 129.623 37.6357 130.692 37.6357C130.958 37.6357 131.243 37.6522 131.55 37.6854C131.857 37.7185 132.126 37.7641 132.358 37.8221V42.5202C132.109 42.4457 131.765 42.3794 131.326 42.3214C130.887 42.2634 130.485 42.2344 130.121 42.2344C129.342 42.2344 128.646 42.4042 128.033 42.744C127.428 43.0754 126.947 43.5394 126.591 44.136C126.243 44.7326 126.069 45.4203 126.069 46.1992V57H120.774ZM142.832 57.3729C140.902 57.3729 139.232 56.9627 137.824 56.1424C136.423 55.3138 135.342 54.1621 134.58 52.6871C133.817 51.204 133.436 49.4846 133.436 47.5291C133.436 45.5571 133.817 43.8336 134.58 42.3587C135.342 40.8755 136.423 39.7237 137.824 38.9034C139.232 38.0748 140.902 37.6605 142.832 37.6605C144.763 37.6605 146.429 38.0748 147.829 38.9034C149.237 39.7237 150.323 40.8755 151.085 42.3587C151.848 43.8336 152.229 45.5571 152.229 47.5291C152.229 49.4846 151.848 51.204 151.085 52.6871C150.323 54.1621 149.237 55.3138 147.829 56.1424C146.429 56.9627 144.763 57.3729 142.832 57.3729ZM142.857 53.2713C143.736 53.2713 144.469 53.0227 145.057 52.5256C145.645 52.0201 146.089 51.3324 146.387 50.4624C146.694 49.5923 146.847 48.6022 146.847 47.4918C146.847 46.3815 146.694 45.3913 146.387 44.5213C146.089 43.6513 145.645 42.9635 145.057 42.4581C144.469 41.9527 143.736 41.6999 142.857 41.6999C141.971 41.6999 141.225 41.9527 140.62 42.4581C140.023 42.9635 139.572 43.6513 139.265 44.5213C138.967 45.3913 138.818 46.3815 138.818 47.4918C138.818 48.6022 138.967 49.5923 139.265 50.4624C139.572 51.3324 140.023 52.0201 140.62 52.5256C141.225 53.0227 141.971 53.2713 142.857 53.2713ZM155.672 64.1591V37.9091H160.892V41.1158H161.128C161.36 40.602 161.695 40.08 162.135 39.5497C162.582 39.0111 163.162 38.5637 163.875 38.2074C164.596 37.8428 165.49 37.6605 166.559 37.6605C167.951 37.6605 169.236 38.0251 170.412 38.7543C171.589 39.4751 172.529 40.5647 173.234 42.0231C173.938 43.4731 174.29 45.2919 174.29 47.4794C174.29 49.6089 173.946 51.407 173.259 52.8736C172.579 54.3319 171.651 55.4381 170.474 56.1921C169.306 56.9379 167.997 57.3107 166.547 57.3107C165.519 57.3107 164.645 57.1409 163.924 56.8011C163.212 56.4614 162.628 56.0347 162.172 55.521C161.716 54.9989 161.368 54.4728 161.128 53.9425H160.966V64.1591H155.672ZM160.854 47.4545C160.854 48.5897 161.012 49.5799 161.327 50.4251C161.642 51.2702 162.097 51.929 162.694 52.4013C163.29 52.8653 164.016 53.0973 164.869 53.0973C165.731 53.0973 166.46 52.8612 167.056 52.3888C167.653 51.9083 168.105 51.2454 168.411 50.4002C168.726 49.5468 168.884 48.5649 168.884 47.4545C168.884 46.3525 168.73 45.383 168.424 44.5462C168.117 43.7093 167.665 43.0547 167.069 42.5824C166.472 42.1101 165.739 41.8739 164.869 41.8739C164.007 41.8739 163.278 42.1018 162.681 42.5575C162.093 43.0133 161.642 43.6596 161.327 44.4964C161.012 45.3333 160.854 46.3194 160.854 47.4545ZM186.52 57.3729C184.556 57.3729 182.866 56.9751 181.449 56.1797C180.041 55.3759 178.955 54.2408 178.193 52.7741C177.431 51.2992 177.049 49.555 177.049 47.5415C177.049 45.5778 177.431 43.8543 178.193 42.3711C178.955 40.8879 180.028 39.732 181.412 38.9034C182.804 38.0748 184.436 37.6605 186.309 37.6605C187.568 37.6605 188.741 37.8635 189.826 38.2695C190.92 38.6673 191.873 39.268 192.685 40.0717C193.505 40.8755 194.143 41.8864 194.599 43.1044C195.055 44.3142 195.283 45.7311 195.283 47.3551V48.8093H179.162V45.5281H190.299C190.299 44.7657 190.133 44.0904 189.801 43.5021C189.47 42.9138 189.01 42.454 188.422 42.1225C187.842 41.7828 187.167 41.6129 186.396 41.6129C185.592 41.6129 184.88 41.7994 184.258 42.1722C183.645 42.5368 183.164 43.0298 182.816 43.6513C182.468 44.2644 182.29 44.948 182.282 45.7021V48.8217C182.282 49.7663 182.456 50.5825 182.804 51.2702C183.16 51.958 183.662 52.4883 184.308 52.8612C184.954 53.234 185.721 53.4205 186.607 53.4205C187.196 53.4205 187.734 53.3376 188.223 53.1719C188.712 53.0062 189.13 52.7576 189.478 52.4261C189.826 52.0947 190.092 51.6887 190.274 51.2081L195.171 51.5312C194.922 52.7079 194.413 53.7353 193.642 54.6136C192.88 55.4837 191.894 56.1631 190.684 56.652C189.482 57.1326 188.095 57.3729 186.52 57.3729ZM198.738 57V37.9091H203.871V41.2401H204.07C204.418 40.0552 205.002 39.1603 205.822 38.5554C206.643 37.9422 207.587 37.6357 208.656 37.6357C208.921 37.6357 209.207 37.6522 209.514 37.6854C209.82 37.7185 210.09 37.7641 210.322 37.8221V42.5202C210.073 42.4457 209.729 42.3794 209.29 42.3214C208.851 42.2634 208.449 42.2344 208.085 42.2344C207.306 42.2344 206.61 42.4042 205.996 42.744C205.392 43.0754 204.911 43.5394 204.555 44.136C204.207 44.7326 204.033 45.4203 204.033 46.1992V57H198.738ZM213.159 57V31.5455H218.54V52.5629H229.453V57H213.159ZM238.362 57.3604C237.143 57.3604 236.058 57.1491 235.105 56.7266C234.152 56.2957 233.398 55.6618 232.843 54.8249C232.296 53.9798 232.023 52.9274 232.023 51.668C232.023 50.6074 232.217 49.7166 232.607 48.9957C232.996 48.2749 233.527 47.6948 234.198 47.2557C234.869 46.8165 235.631 46.4851 236.485 46.2614C237.346 46.0376 238.25 45.8802 239.194 45.7891C240.305 45.6731 241.199 45.5653 241.879 45.4659C242.558 45.3582 243.051 45.2008 243.358 44.9936C243.665 44.7865 243.818 44.4799 243.818 44.0739V43.9993C243.818 43.2121 243.569 42.6031 243.072 42.1722C242.583 41.7414 241.887 41.5259 240.984 41.5259C240.031 41.5259 239.273 41.7372 238.71 42.1598C238.146 42.5741 237.773 43.0961 237.591 43.7259L232.694 43.3281C232.942 42.1681 233.431 41.1655 234.161 40.3203C234.89 39.4669 235.83 38.8123 236.982 38.3565C238.142 37.8925 239.484 37.6605 241.009 37.6605C242.069 37.6605 243.085 37.7848 244.054 38.0334C245.032 38.282 245.898 38.6673 246.652 39.1893C247.414 39.7113 248.015 40.3825 248.454 41.2028C248.893 42.0148 249.113 42.9884 249.113 44.1236V57H244.091V54.3526H243.942C243.636 54.9492 243.225 55.4754 242.712 55.9311C242.198 56.3786 241.581 56.7307 240.86 56.9876C240.139 57.2362 239.306 57.3604 238.362 57.3604ZM239.878 53.7063C240.657 53.7063 241.344 53.553 241.941 53.2464C242.538 52.9316 243.006 52.509 243.346 51.9787C243.685 51.4484 243.855 50.8477 243.855 50.1765V48.1506C243.689 48.2583 243.462 48.3577 243.172 48.4489C242.89 48.5317 242.571 48.6104 242.214 48.685C241.858 48.7513 241.502 48.8134 241.146 48.8714C240.789 48.9212 240.466 48.9667 240.176 49.0082C239.555 49.0993 239.012 49.2443 238.548 49.4432C238.084 49.642 237.723 49.9113 237.467 50.2511C237.21 50.5825 237.081 50.9968 237.081 51.494C237.081 52.2148 237.342 52.7659 237.864 53.147C238.395 53.5199 239.066 53.7063 239.878 53.7063ZM258.515 45.9631V57H253.22V37.9091H258.267V41.2773H258.49C258.913 40.167 259.621 39.2887 260.616 38.6424C261.61 37.9878 262.816 37.6605 264.232 37.6605C265.558 37.6605 266.714 37.9505 267.7 38.5305C268.686 39.1106 269.453 39.9392 269.999 41.0163C270.546 42.0852 270.82 43.3613 270.82 44.8445V57H265.525V45.7891C265.533 44.6207 265.235 43.7093 264.63 43.0547C264.025 42.3918 263.193 42.0604 262.132 42.0604C261.419 42.0604 260.79 42.2137 260.243 42.5202C259.704 42.8268 259.282 43.2743 258.975 43.8626C258.677 44.4426 258.523 45.1428 258.515 45.9631ZM282.028 57.3107C280.578 57.3107 279.264 56.9379 278.088 56.1921C276.919 55.4381 275.991 54.3319 275.304 52.8736C274.624 51.407 274.284 49.6089 274.284 47.4794C274.284 45.2919 274.637 43.4731 275.341 42.0231C276.045 40.5647 276.981 39.4751 278.15 38.7543C279.326 38.0251 280.615 37.6605 282.015 37.6605C283.084 37.6605 283.975 37.8428 284.687 38.2074C285.408 38.5637 285.988 39.0111 286.427 39.5497C286.875 40.08 287.215 40.602 287.447 41.1158H287.608V31.5455H292.891V57H287.67V53.9425H287.447C287.198 54.4728 286.846 54.9989 286.39 55.521C285.943 56.0347 285.359 56.4614 284.638 56.8011C283.925 57.1409 283.055 57.3107 282.028 57.3107ZM283.706 53.0973C284.559 53.0973 285.28 52.8653 285.868 52.4013C286.465 51.929 286.92 51.2702 287.235 50.4251C287.559 49.5799 287.72 48.5897 287.72 47.4545C287.72 46.3194 287.563 45.3333 287.248 44.4964C286.933 43.6596 286.477 43.0133 285.881 42.5575C285.284 42.1018 284.559 41.8739 283.706 41.8739C282.835 41.8739 282.102 42.1101 281.506 42.5824C280.909 43.0547 280.457 43.7093 280.151 44.5462C279.844 45.383 279.691 46.3525 279.691 47.4545C279.691 48.5649 279.844 49.5468 280.151 50.4002C280.466 51.2454 280.917 51.9083 281.506 52.3888C282.102 52.8612 282.835 53.0973 283.706 53.0973Z" fill="#3B3A5D"/>
<path d="M80.9999 22.2651L58.6696 0L0 59.7669H80.9999V22.2651Z" fill="#0A0B3B"/>
<path d="M80.9999 34.9516L58.6696 12.6865L11.4514 59.7668H80.9999V34.9516Z" fill="#FFBB50"/>
<path d="M57.8934 32.3511H51.5315V38.6944H57.8934V32.3511Z" fill="white"/>
<path d="M66.1639 32.3511H59.802V38.6944H66.1639V32.3511Z" fill="white"/>
<path d="M57.8934 40.5977H51.5315V46.941H57.8934V40.5977Z" fill="white"/>
<path d="M66.1639 40.5977H59.802V46.941H66.1639V40.5977Z" fill="white"/>
<path d="M32.1612 12.6865L32.4458 36.71L22.2987 36.7912L22.2667 12.6865L32.1612 12.6865Z" fill="#0A0B3B"/>
</svg>
